<mxfile host="app.diagrams.net" modified="2024-01-10T10:59:53.015Z" agent="Mozilla/5.0 (Windows NT 10.0; Win64; x64) AppleWebKit/537.36 (KHTML, like Gecko) Chrome/120.0.0.0 Safari/537.36" version="22.1.18" etag="i9_fewuHC0E0UgM5VFR3" type="github">
  <diagram name="第 1 页" id="F3wVkyUGO8uVFKMQ3UKw">
    <mxGraphModel>
      <root>
        <mxCell id="0" />
        <mxCell id="1" parent="0" />
      </root>
    </mxGraphModel>
  </diagram>
</mxfile>
